<?xml version="1.0" encoding="UTF-8"?>
<svg xmlns="http://www.w3.org/2000/svg" xmlns:xlink="http://www.w3.org/1999/xlink" width="59.6pt" height="57.16657pt" viewBox="0 0 59.6 57.16657" version="1.1">
<g id="surface1">
<path style="fill:none;stroke-width:0.3985;stroke-linecap:butt;stroke-linejoin:miter;stroke:rgb(0%,0%,0%);stroke-opacity:1;stroke-miterlimit:10;" d="M -26.959302 8.760968 L -16.663457 -22.93276 L 16.661336 -22.93276 L 26.961087 8.760968 L -0.00106054 28.345926 L -26.959302 8.760968 " transform="matrix(1.0001,0,0,-1.00005,29.747154,31.374687)"/>
<path style=" stroke:none;fill-rule:nonzero;fill:rgb(0%,0%,0%);fill-opacity:1;" d="M 4.777344 22.613281 C 4.777344 21.515625 3.886719 20.621094 2.785156 20.621094 C 1.683594 20.621094 0.792969 21.515625 0.792969 22.613281 C 0.792969 23.714844 1.683594 24.605469 2.785156 24.605469 C 3.886719 24.605469 4.777344 23.714844 4.777344 22.613281 Z M 4.777344 22.613281 "/>
<path style=" stroke:none;fill-rule:nonzero;fill:rgb(0%,0%,0%);fill-opacity:1;" d="M 15.078125 54.308594 C 15.078125 53.207031 14.183594 52.316406 13.082031 52.316406 C 11.984375 52.316406 11.089844 53.207031 11.089844 54.308594 C 11.089844 55.410156 11.984375 56.300781 13.082031 56.300781 C 14.183594 56.300781 15.078125 55.410156 15.078125 54.308594 Z M 15.078125 54.308594 "/>
<path style=" stroke:none;fill-rule:nonzero;fill:rgb(0%,0%,0%);fill-opacity:1;" d="M 48.402344 54.308594 C 48.402344 53.207031 47.511719 52.316406 46.410156 52.316406 C 45.308594 52.316406 44.417969 53.207031 44.417969 54.308594 C 44.417969 55.410156 45.308594 56.300781 46.410156 56.300781 C 47.511719 56.300781 48.402344 55.410156 48.402344 54.308594 Z M 48.402344 54.308594 "/>
<path style=" stroke:none;fill-rule:nonzero;fill:rgb(0%,0%,0%);fill-opacity:1;" d="M 58.703125 22.613281 C 58.703125 21.515625 57.808594 20.621094 56.710938 20.621094 C 55.609375 20.621094 54.714844 21.515625 54.714844 22.613281 C 54.714844 23.714844 55.609375 24.605469 56.710938 24.605469 C 57.808594 24.605469 58.703125 23.714844 58.703125 22.613281 Z M 58.703125 22.613281 "/>
<path style=" stroke:none;fill-rule:nonzero;fill:rgb(0%,0%,0%);fill-opacity:1;" d="M 31.738281 3.027344 C 31.738281 1.925781 30.847656 1.035156 29.746094 1.035156 C 28.648438 1.035156 27.753906 1.925781 27.753906 3.027344 C 27.753906 4.128906 28.648438 5.019531 29.746094 5.019531 C 30.847656 5.019531 31.738281 4.128906 31.738281 3.027344 Z M 31.738281 3.027344 "/>
</g>
</svg>
